<?xml version="1.0" encoding="UTF-8" ?>
<!DOCTYPE svg PUBLIC "-//W3C//DTD SVG 1.1//EN" "http://www.w3.org/Graphics/SVG/1.1/DTD/svg11.dtd">
<svg width="545pt" height="324pt" viewBox="0 0 545 324" version="1.1" xmlns="http://www.w3.org/2000/svg">
<g id="#000000ff">
<path fill="#000000" opacity="1.00" d=" M 338.41 82.43 C 342.17 81.09 346.25 82.42 349.59 84.28 C 354.07 86.79 355.73 92.20 356.40 96.96 C 356.46 141.66 356.41 186.36 356.43 231.06 C 356.08 235.72 354.44 240.67 350.66 243.68 C 345.33 248.38 336.24 247.86 331.53 242.51 C 328.83 239.76 327.73 235.84 327.83 232.07 C 327.85 186.68 327.80 141.29 327.85 95.91 C 327.72 89.67 332.33 83.79 338.41 82.43 Z" />
<path fill="#000000" opacity="1.00" d=" M 206.36 85.35 C 212.62 83.14 220.19 86.21 223.18 92.14 C 225.11 95.04 224.39 98.67 224.52 101.95 C 224.51 144.60 224.51 187.25 224.53 229.89 C 225.49 238.46 216.25 245.71 208.09 243.98 C 203.40 243.22 199.31 239.80 197.56 235.42 C 196.37 232.42 196.71 229.14 196.66 226.00 C 196.69 183.65 196.65 141.29 196.68 98.94 C 196.41 92.90 200.65 87.14 206.36 85.35 Z" />
<path fill="#000000" opacity="1.00" d=" M 295.42 94.53 C 301.01 93.53 307.40 95.82 310.12 101.03 C 311.21 103.19 312.59 105.42 312.46 107.93 C 312.41 143.29 312.45 178.64 312.45 213.99 C 312.33 218.24 313.14 222.81 310.73 226.61 C 307.43 234.00 297.29 236.98 290.54 232.48 C 286.71 230.02 284.04 225.71 284.12 221.09 C 284.09 183.36 284.10 145.64 284.12 107.91 C 284.04 101.53 289.19 95.61 295.42 94.53 Z" />
<path fill="#000000" opacity="1.00" d=" M 252.45 99.60 C 258.31 98.29 265.28 100.47 268.12 106.04 C 269.16 108.22 270.55 110.43 270.44 112.93 C 270.44 146.98 270.44 181.03 270.44 215.08 C 270.25 222.28 264.38 229.50 256.86 229.66 C 250.44 230.35 244.04 225.74 242.52 219.49 C 241.60 215.39 242.07 211.15 242.03 206.99 C 242.06 175.63 242.00 144.27 242.05 112.91 C 242.00 106.78 246.55 101.09 252.45 99.60 Z" />
<path fill="#000000" opacity="1.00" d=" M 382.43 123.47 C 389.85 121.61 397.68 126.73 399.42 134.01 C 399.59 152.01 399.41 170.01 399.50 188.01 C 399.39 191.58 400.06 195.49 397.76 198.56 C 394.09 205.61 384.02 208.02 377.56 203.40 C 373.85 200.90 371.55 196.53 371.60 192.05 C 371.55 173.69 371.58 155.32 371.59 136.95 C 371.36 130.64 376.30 124.70 382.43 123.47 Z" />
<path fill="#000000" opacity="1.00" d=" M 161.50 137.67 C 168.73 134.31 177.88 138.77 180.37 146.12 C 180.98 157.07 180.51 168.08 180.62 179.06 C 181.05 187.04 172.58 193.36 164.97 192.21 C 158.50 191.50 153.07 185.62 152.98 179.09 C 152.85 169.70 152.95 160.30 152.94 150.91 C 152.71 145.26 156.32 139.83 161.50 137.67 Z" />
<path fill="#000000" opacity="1.00" d=" M 119.38 149.36 C 126.16 147.06 134.13 151.47 136.48 157.99 C 136.64 163.83 138.28 171.00 133.49 175.50 C 128.56 181.14 119.01 181.65 113.60 176.41 C 109.85 173.08 108.83 167.82 109.18 163.02 C 108.96 156.83 113.38 150.90 119.38 149.36 Z" />
<path fill="#000000" opacity="1.00" d=" M 425.36 150.29 C 431.99 148.07 439.32 152.07 442.35 158.09 C 442.97 162.00 443.00 166.03 442.45 169.95 C 439.63 178.20 428.41 181.99 421.29 176.76 C 411.63 170.52 413.85 153.07 425.36 150.29 Z" />
</g>
</svg>
